<?xml version="1.0" encoding="UTF-8" standalone="no"?>
<!-- Created with Inkscape (http://www.inkscape.org/) -->

<svg
   xmlns:dc="http://purl.org/dc/elements/1.1/"
   xmlns:cc="http://creativecommons.org/ns#"
   xmlns:rdf="http://www.w3.org/1999/02/22-rdf-syntax-ns#"
   xmlns:svg="http://www.w3.org/2000/svg"
   xmlns="http://www.w3.org/2000/svg"
   xmlns:sodipodi="http://sodipodi.sourceforge.net/DTD/sodipodi-0.dtd"
   xmlns:inkscape="http://www.inkscape.org/namespaces/inkscape"
   width="157.70079"
   height="34"
   viewBox="0 0 157.70079 8.9958328"
   version="1.1"
   id="svg8"
   sodipodi:docname="probetas2.svg"
   inkscape:version="0.92.2 5c3e80d, 2017-08-06">
  <defs
     id="defs2" />
  <sodipodi:namedview
     id="base"
     pagecolor="#ffffff"
     bordercolor="#666666"
     borderopacity="1.0"
     inkscape:pageopacity="0.0"
     inkscape:pageshadow="2"
     inkscape:zoom="4"
     inkscape:cx="65.165793"
     inkscape:cy="19.117908"
     inkscape:document-units="mm"
     inkscape:current-layer="layer1"
     showgrid="false"
     inkscape:window-width="1280"
     inkscape:window-height="701"
     inkscape:window-x="0"
     inkscape:window-y="1"
     inkscape:window-maximized="1"
     width="10000000mm"
     units="px"
     height="31px" />
  <metadata
     id="metadata5">
    <rdf:RDF>
      <cc:Work
         rdf:about="">
        <dc:format>image/svg+xml</dc:format>
        <dc:type
           rdf:resource="http://purl.org/dc/dcmitype/StillImage" />
        <dc:title></dc:title>
      </cc:Work>
    </rdf:RDF>
  </metadata>
  <g
     inkscape:label="Capa 1"
     inkscape:groupmode="layer"
     id="layer1"
     transform="translate(0,-846.70082)">
    <g
       id="g824"
       transform="translate(24.5,3.125)">
      <path
         id="path958"
         d="m 113.01531,852.77199 c 1.63451,-0.004 3.58011,0.13049 5.49727,0.59746 5.26293,1.28206 8.24177,1.44274 12.63613,0.31584 a 9.7109289,9.7109289 0 0 1 0.42388,2.79685 9.7109289,9.7109289 0 0 1 -3.91802,7.77928 h -11.58791 a 9.7109289,9.7109289 0 0 1 -3.91592,-7.77928 9.7109289,9.7109289 0 0 1 0.74284,-3.70902 c 0.0408,-2.9e-4 0.0805,-10e-4 0.12173,-10e-4 z"
         style="fill:#61dafb;fill-opacity:1;stroke:none;stroke-width:0.07172056px;stroke-linecap:butt;stroke-linejoin:miter;stroke-opacity:1"
         inkscape:connector-curvature="0" />
      <path
         id="path954"
         d="m 124.19966,831.9813 c 0.94204,0 1.71947,0.77744 1.71947,1.71945 0,0.71649 -0.45076,1.33546 -1.08057,1.59188 0.002,0.0389 0.004,0.0647 0.005,0.10685 0.012,0.33693 0.0211,0.78151 0.028,1.30431 0.0138,1.04552 0.0193,2.40188 0.0218,3.79556 0.005,2.60392 0.003,5.11764 0.0225,6.14601 4.29314,1.33102 7.26017,5.30478 7.26591,9.8358 a 0.60996819,0.60996819 0 0 1 0,0.002 c -0.005,3.25826 -1.54908,6.32407 -4.16414,8.26773 a 0.60996819,0.60996819 0 0 1 -0.36378,0.12067 h -11.58792 a 0.60996819,0.60996819 0 0 1 -0.36392,-0.12067 c -2.61421,-1.94414 -4.15753,-5.00998 -4.1619,-8.26788 a 0.60996819,0.60996819 0 0 1 0,-0.001 c 0.003,-4.53334 2.97073,-8.51038 7.26606,-9.84198 0.0193,-1.03684 0.0178,-3.55008 0.0225,-6.15048 0.002,-1.39183 0.008,-2.74578 0.0218,-3.78927 0.007,-0.52175 0.016,-0.96531 0.0284,-1.30162 0.002,-0.0418 0.004,-0.0672 0.005,-0.10577 -0.62981,-0.25623 -1.08057,-0.87535 -1.08057,-1.59183 0,-0.94205 0.77743,-1.71949 1.71947,-1.71949 z m 0,0.60988 h -4.67598 c -0.6147,0 -1.10957,0.49489 -1.10957,1.10957 0,0.61472 0.49487,1.10957 1.10957,1.10957 h 0.01 c -0.14491,0.53911 -0.0669,10.51405 -0.11863,12.28075 a 9.7109289,9.7109289 0 0 0 -7.26423,9.39107 9.7109289,9.7109289 0 0 0 3.91591,7.77928 h 11.58792 a 9.7109289,9.7109289 0 0 0 3.91802,-7.77928 9.7109289,9.7109289 0 0 0 -7.26409,-9.38533 c -0.0521,-1.74776 0.0262,-11.74665 -0.11878,-12.28649 h 0.01 c 0.6147,0 1.10957,-0.49485 1.10957,-1.10957 0,-0.61468 -0.49487,-1.10957 -1.10957,-1.10957 z"
         style="color:#000000;font-style:normal;font-variant:normal;font-weight:normal;font-stretch:normal;font-size:medium;line-height:normal;font-family:sans-serif;font-variant-ligatures:normal;font-variant-position:normal;font-variant-caps:normal;font-variant-numeric:normal;font-variant-alternates:normal;font-feature-settings:normal;text-indent:0;text-align:start;text-decoration:none;text-decoration-line:none;text-decoration-style:solid;text-decoration-color:#000000;letter-spacing:normal;word-spacing:normal;text-transform:none;writing-mode:lr-tb;direction:ltr;text-orientation:mixed;dominant-baseline:auto;baseline-shift:baseline;text-anchor:start;white-space:normal;shape-padding:0;clip-rule:nonzero;display:inline;overflow:visible;visibility:visible;opacity:1;isolation:auto;mix-blend-mode:normal;color-interpolation:sRGB;color-interpolation-filters:linearRGB;solid-color:#000000;solid-opacity:1;vector-effect:none;fill:#000000;fill-opacity:1;fill-rule:nonzero;stroke:none;stroke-width:1.21981454;stroke-linecap:square;stroke-linejoin:round;stroke-miterlimit:4;stroke-dasharray:none;stroke-dashoffset:0;stroke-opacity:1;paint-order:fill markers stroke;color-rendering:auto;image-rendering:auto;shape-rendering:auto;text-rendering:auto;enable-background:accumulate"
         inkscape:connector-curvature="0" />
    </g>
    <path
       inkscape:connector-curvature="0"
       style="color:#000000;font-style:normal;font-variant:normal;font-weight:normal;font-stretch:normal;font-size:medium;line-height:normal;font-family:sans-serif;font-variant-ligatures:normal;font-variant-position:normal;font-variant-caps:normal;font-variant-numeric:normal;font-variant-alternates:normal;font-feature-settings:normal;text-indent:0;text-align:start;text-decoration:none;text-decoration-line:none;text-decoration-style:solid;text-decoration-color:#000000;letter-spacing:normal;word-spacing:normal;text-transform:none;writing-mode:lr-tb;direction:ltr;text-orientation:mixed;dominant-baseline:auto;baseline-shift:baseline;text-anchor:start;white-space:normal;shape-padding:0;clip-rule:nonzero;display:inline;overflow:visible;visibility:visible;opacity:1;isolation:auto;mix-blend-mode:normal;color-interpolation:sRGB;color-interpolation-filters:linearRGB;solid-color:#000000;solid-opacity:1;vector-effect:none;fill:#000000;fill-opacity:1;fill-rule:nonzero;stroke:none;stroke-width:1.38245642;stroke-linecap:square;stroke-linejoin:round;stroke-miterlimit:4;stroke-dasharray:none;stroke-dashoffset:0;stroke-opacity:1;paint-order:fill markers stroke;color-rendering:auto;image-rendering:auto;shape-rendering:auto;text-rendering:auto;enable-background:accumulate"
       d="m 118.1415,839.79897 c -0.98569,0 -1.80058,0.81491 -1.80058,1.80057 0,0.73114 0.45092,1.36512 1.08478,1.64553 -0.007,0.17809 -0.0389,0.31257 -0.0446,0.54645 -0.0131,0.5401 -0.0153,1.18935 -0.0164,1.82119 -0.001,0.6318 -0.002,1.24669 -0.009,1.70374 -0.004,0.22426 -0.01,0.40889 -0.0174,0.53091 l -10.94383,12.4756 c -0.33293,0.37952 -0.43284,0.93623 -0.30665,1.36493 0.12619,0.42873 0.39549,0.75203 0.7053,1.02288 0.61963,0.5417 1.43409,0.91064 2.27278,0.91064 h 22.82872 c 0.83869,0 1.65316,-0.36894 2.27279,-0.91064 0.30981,-0.27078 0.57909,-0.59415 0.70529,-1.02288 0.1262,-0.4287 0.0262,-0.98541 -0.30661,-1.36493 l -10.94383,-12.4756 c -0.008,-0.12213 -0.0134,-0.30676 -0.0174,-0.53091 -0.008,-0.45705 -0.008,-1.07194 -0.009,-1.70374 -0.001,-0.63184 -0.003,-1.28109 -0.0164,-1.82119 -0.006,-0.23406 -0.0373,-0.36847 -0.0446,-0.54645 0.63387,-0.28059 1.08478,-0.91439 1.08478,-1.64553 0,-0.98566 -0.81531,-1.80057 -1.801,-1.80057 z m 1.4e-4,0.69101 h 4.67599 c 0.61469,0 1.10957,0.49488 1.10957,1.10956 0,0.61472 -0.49488,1.10957 -1.10957,1.10957 h -0.01 c 0.17217,0.64052 0.0291,5.29152 0.16333,5.44475 l 11.07467,12.6248 c 0.78605,0.89607 -0.95962,2.1516 -2.15162,2.1516 h -22.82885 c -1.192,0 -2.93768,-1.25553 -2.15162,-2.1516 l 11.07466,-12.6248 c 0.13441,-0.15338 -0.009,-4.80423 0.16334,-5.44475 h -0.01 c -0.6147,0 -1.10957,-0.49485 -1.10957,-1.10957 0,-0.61468 0.49487,-1.10956 1.10957,-1.10956 z"
       id="path841" />
    <path
       inkscape:connector-curvature="0"
       style="opacity:1;fill:#ff5555;fill-opacity:1;stroke:none;stroke-width:1.38245642;stroke-linecap:square;stroke-linejoin:round;stroke-miterlimit:4;stroke-dasharray:none;stroke-dashoffset:0;stroke-opacity:1;paint-order:fill markers stroke"
       d="m 113.67115,853.07527 -6.75756,7.70339 c -0.78606,0.89607 0.95962,2.1516 2.15162,2.1516 h 22.82885 c 1.192,0 2.93767,-1.25553 2.15162,-2.1516 l -6.27513,-7.15344 c -3.91417,0.5264 -8.94036,-0.40533 -14.0994,-0.54995 z"
       id="path844" />
    <path
       style="opacity:1;fill:#ffd5d5;fill-opacity:1;stroke:none;stroke-width:1.38245642;stroke-linecap:square;stroke-linejoin:round;stroke-miterlimit:4;stroke-dasharray:none;stroke-dashoffset:0;stroke-opacity:1;paint-order:fill markers stroke"
       d="m 128.09838,854.81664 a 9.7109289,9.7109289 0 0 0 -0.0214,0.41546 9.7109289,9.7109289 0 0 0 3.7065,7.60675 c 1.08237,-0.30421 2.20444,-1.30848 1.54507,-2.06015 z"
       id="path978"
       inkscape:connector-curvature="0" />
    <text
       xml:space="preserve"
       style="font-style:normal;font-variant:normal;font-weight:normal;font-stretch:normal;font-size:23.4315815px;line-height:1.25;font-family:Bebas;-inkscape-font-specification:'Bebas, Normal';font-variant-ligatures:normal;font-variant-caps:normal;font-variant-numeric:normal;font-feature-settings:normal;text-align:start;letter-spacing:0px;word-spacing:0px;writing-mode:lr-tb;text-anchor:start;fill:#000000;fill-opacity:1;stroke:none;stroke-width:0.31381905"
       x="0.96674764"
       y="863.08881"
       id="text995"><tspan
         sodipodi:role="line"
         id="tspan993"
         x="0.96674764"
         y="863.08881"
         style="font-style:normal;font-variant:normal;font-weight:bold;font-stretch:normal;font-size:23.43184853px;font-family:'DIN Alternate';-inkscape-font-specification:'DIN Alternate, Bold';font-variant-ligatures:normal;font-variant-caps:normal;font-variant-numeric:normal;font-feature-settings:normal;text-align:start;writing-mode:lr-tb;text-anchor:start;stroke-width:0.31381905">JorgeLabs</tspan></text>
  </g>
</svg>
